# xmcd CD database file
#
# Track frame offsets:
#	150
#	8740
#	35795
#	49960
#	70965
#	83487
#	95232
#	107122
#	133782
#	146197
#	161002
#	174002
#	192750
#	204520
#	217130
#	231485
#
# Disc length: 3396 seconds
#
# Revision: 0
# Processed by: cddbd v1.5.1PL0 Copyright (c) Steve Scherf et al.
# Submitted via: CDex 1.51
#
DISCID=ee0d4210
DTITLE=Omnibas - JAZZ VOCAL BEST SELECTION[CD2]
DYEAR=2005
DGENRE=Jazz
TTITLE0=All dressed up with a broken
TTITLE1=I did'nt know what time it was
TTITLE2=It's only paper moon
TTITLE3=Midnight sun
TTITLE4=Old Devil Moon
TTITLE5=Mornin'
TTITLE6=Gone with the wind
TTITLE7=Cheek to Cheek
TTITLE8=Angel eyes
TTITLE9=Tea For Two
TTITLE10=Caravan
TTITLE11=I'm a fool to want you
TTITLE12=Charade
TTITLE13=Summertime
TTITLE14=Moonlight in vermont
TTITLE15=Yes Indeed!
EXTD=YEAR: 2005
EXTT0=
EXTT1=
EXTT2=
EXTT3=
EXTT4=
EXTT5=
EXTT6=
EXTT7=
EXTT8=
EXTT9=
EXTT10=
EXTT11=
EXTT12=
EXTT13=
EXTT14=
EXTT15=
PLAYORDER=
